<svg width="33" height="25" viewBox="0 0 33 25" fill="none" stroke="#3B9B67" xmlns="http://www.w3.org/2000/svg">
<path d="M3.17107 25C2.29903 25 1.55224 24.6937 0.930711 24.0812C0.309182 23.4687 -0.00105433 22.7333 2.69191e-06 21.875V3.125C2.69191e-06 2.26563 0.310768 1.52969 0.932297 0.91719C1.55383 0.30469 2.30008 -0.00103901 3.17107 2.6528e-06H11.3762C11.799 2.6528e-06 12.2023 0.0781278 12.586 0.234378C12.9697 0.390628 13.3063 0.611981 13.596 0.89844L15.8553 3.125H28.5396C29.4117 3.125 30.1585 3.43125 30.78 4.04375C31.4015 4.65625 31.7118 5.39167 31.7107 6.25H6.34214C5.4701 6.25 4.72331 6.55625 4.10178 7.16875C3.48025 7.78125 3.17001 8.51667 3.17107 9.375V21.875L6.3025 11.6016C6.51391 10.9245 6.90395 10.3839 7.47263 9.97969C8.04131 9.57552 8.66865 9.37396 9.35466 9.375H29.8081C30.8915 9.375 31.744 9.79844 32.3655 10.6453C32.987 11.4922 33.1519 12.4099 32.8602 13.3984L30.0062 22.7734C29.7948 23.4505 29.4048 23.9911 28.8361 24.3953C28.2674 24.7995 27.6401 25.001 26.9541 25H3.17107Z" fill="white"/>
</svg>
