<svg width="312" height="151" viewBox="0 0 312 151" fill="none" xmlns="http://www.w3.org/2000/svg">
<path d="M0.843994 36.8792H308.593" stroke="black" stroke-width="0.5" stroke-miterlimit="10"/>
<path d="M0.844069 36.5308H0V37.2289H0.844069V36.5308Z" fill="black"/>
<path d="M0.843994 145.415H308.593" stroke="black" stroke-width="0.5" stroke-miterlimit="10"/>
<path d="M0.844069 145.066H0V145.764H0.844069V145.066Z" fill="black"/>
<path d="M0.843994 109.237H308.593" stroke="black" stroke-width="0.5" stroke-miterlimit="10"/>
<path d="M0.844069 108.889H0V109.587H0.844069V108.889Z" fill="black"/>
<path d="M0.843994 73.0565H308.593" stroke="black" stroke-width="0.5" stroke-miterlimit="10"/>
<path d="M0.844069 72.7064H0V73.4045H0.844069V72.7064Z" fill="black"/>
<path d="M0.843994 36.8792H308.593" stroke="black" stroke-width="0.5" stroke-miterlimit="10"/>
<path d="M0.844069 36.5308H0V37.2289H0.844069V36.5308Z" fill="black"/>
<path d="M0.843994 0.348328H308.593" stroke="black" stroke-width="0.5" stroke-miterlimit="10"/>
<path d="M0.844069 0H0V0.698106H0.844069V0Z" fill="black"/>
<path d="M6.83203 150.819C6.83203 150.819 29.1681 142.219 38.0309 99.2036C44.7771 66.4689 53.0147 99.2036 53.0147 99.2036C53.0147 99.2036 56.8447 125.801 78.0829 126.315C125.659 127.467 141.864 123.935 160.852 73.1453C173.644 38.9383 176.687 8.50736 189.592 8.66602C202.317 8.82151 210.192 74.9477 219.395 87.3231C230.533 102.237 246.405 136.387 276.369 136.362C306.334 136.336 294.634 149.464 311.658 150.825L6.83203 150.819Z" fill="#EED50D"/>
<path opacity="0.74" d="M10.2812 150.819C10.2812 150.819 53.3605 142.296 79.7424 109.644C112.426 69.1917 104.259 21.1591 120.604 21.1591C136.949 21.1591 143.616 109.355 178.356 109.355C213.096 109.355 205.737 83.6519 226.166 83.6519C246.595 83.6519 260.903 149.813 290.179 150.391C310.913 150.797 311.671 150.819 311.671 150.819H10.2812Z" fill="#227B8C"/>
<path opacity="0.74" d="M3.61743 150.818C3.61743 150.818 39.7125 148.299 61.5028 110.557C83.2931 72.8149 81.2528 47.588 97.5947 47.588C113.937 47.588 122.78 110.557 157.517 110.557C192.254 110.557 192.248 92.8409 212.677 92.8409C233.106 92.8409 240.601 150.818 269.88 150.818H3.61743Z" fill="#C79090"/>
</svg>
