<svg width="375" height="275" viewBox="0 0 375 275" fill="none" xmlns="http://www.w3.org/2000/svg">
<g clip-path="url(#clip0_1_3)">
<rect width="375" height="275" fill="white"/>
<path opacity="0.7" d="M113.484 199.91L79.8037 219.352L51.1055 202.673L84.7811 183.23L113.484 199.91Z" fill="url(#paint1_linear_1_3)"/>
<path d="M113.379 161.209L113.487 199.891L84.7853 183.211L84.6766 144.53L113.379 161.209Z" fill="url(#paint2_linear_1_3)"/>
<path d="M79.8081 219.356L51.11 202.676L51.0003 163.976L79.6984 180.655L79.8081 219.356Z" fill="url(#paint3_linear_1_3)"/>
<path d="M79.6981 180.64L51 163.964L84.6766 144.522L113.375 161.198L79.6981 180.64Z" fill="url(#paint4_linear_1_3)"/>
<path d="M83.6226 135.916C91.9844 135.916 98.763 129.891 98.763 122.458C98.763 115.025 91.9844 109 83.6226 109C75.2609 109 68.4823 115.025 68.4823 122.458C68.4823 129.891 75.2609 135.916 83.6226 135.916Z" fill="url(#paint5_linear_1_3)"/>
<circle opacity="0.3" cx="319" cy="57" r="80.5" stroke="#191919"/>
<circle cx="261" cy="113" r="17" fill="#158889"/>
<path d="M260 119L254.167 113L251.918 115.313C249.955 117.332 246.712 117.332 244.748 115.313L242.5 113L240.252 115.313C238.288 117.332 235.045 117.332 233.082 115.313L230.833 113L225 119" stroke="black" stroke-width="3" stroke-linecap="round" stroke-linejoin="round"/>
</g>
<defs>
<linearGradient id="paint0_linear_1_3" x1="235.427" y1="423" x2="235.425" y2="424.397" gradientUnits="userSpaceOnUse">
<stop stop-color="#7957F3"/>
<stop offset="1" stop-color="#8F70FF"/>
</linearGradient>
<linearGradient id="paint1_linear_1_3" x1="51.1055" y1="201.291" x2="113.484" y2="201.291" gradientUnits="userSpaceOnUse">
<stop stop-color="#31ACAD"/>
<stop offset="1" stop-color="#4C30B2"/>
</linearGradient>
<linearGradient id="paint2_linear_1_3" x1="84.6766" y1="172.21" x2="113.487" y2="172.21" gradientUnits="userSpaceOnUse">
<stop stop-color="#31ACAD"/>
<stop offset="1" stop-color="#4C30B2"/>
</linearGradient>
<linearGradient id="paint3_linear_1_3" x1="51.0003" y1="191.666" x2="79.8081" y2="191.666" gradientUnits="userSpaceOnUse">
<stop stop-color="#31ACAD"/>
<stop offset="1" stop-color="#4C30B2"/>
</linearGradient>
<linearGradient id="paint4_linear_1_3" x1="51" y1="162.581" x2="113.375" y2="162.581" gradientUnits="userSpaceOnUse">
<stop stop-color="#31ACAD"/>
<stop offset="1" stop-color="#4C30B2"/>
</linearGradient>
<linearGradient id="paint5_linear_1_3" x1="107.999" y1="109.727" x2="64.5949" y2="138.399" gradientUnits="userSpaceOnUse">
<stop offset="0.274" stop-color="#09797A"/>
<stop offset="1" stop-color="#71FEFF"/>
</linearGradient>
<clipPath id="clip0_1_3">
<rect width="375" height="812" fill="white"/>
</clipPath>
</defs>
</svg>