<svg width="30" height="30" viewBox="0 0 30 30" fill="none" stroke="#3B9B67" xmlns="http://www.w3.org/2000/svg">
<path d="M27 11.0526V9.47368L18 0H3C1.335 0 0 1.40526 0 3.15789V25.2632C0 26.1007 0.31607 26.9039 0.87868 27.4961C1.44129 28.0883 2.20435 28.4211 3 28.4211H12V25.4684L24.585 12.2211C25.245 11.5263 26.085 11.1474 27 11.0526ZM16.5 2.36842L24.75 11.0526H16.5V2.36842ZM29.775 17.6684L28.305 19.2158L25.245 15.9947L26.715 14.4474C27 14.1316 27.495 14.1316 27.795 14.4474L29.775 16.5316C30.075 16.8474 30.075 17.3684 29.775 17.6684ZM24.195 17.1L27.255 20.3211L18.06 30H15V26.7789L24.195 17.1Z" fill="white"/>
</svg>
